<svg version="1" xmlns="http://www.w3.org/2000/svg" width="800" height="809.333" viewBox="0 0 600.000000 607.000000"><path d="M335.5 151.2c.3 83.2.8 168.8 1.1 190.3l.6 39 67 37.9 66.9 37.8 64.5-38.8 64.5-38.8-.5-51.1c-.4-28-.9-62.3-1.2-76.2l-.6-25.1-64.6-37.3c-35.4-20.5-65-37.2-65.7-37.2-.6 0-15.2 8.4-32.5 18.6-17.2 10.3-31.5 18.5-31.8 18.2-.3-.2-.8-34.1-1.1-75.2l-.6-74.8L371 20.7c-16.8-9.8-31.7-18.4-33.2-19.3L335 0l.5 151.2zm167.8 96.3l28.7 16.8.2 34.9c.1 19.1.2 35.8.2 37 .1 1.9-4.8 5.3-31.4 21.5-17.3 10.5-32 19.1-32.6 19-.6-.1-14.9-8.1-31.7-17.7l-30.6-17.5-.3-25.8c-.1-14.1-.3-31.2-.3-37.9v-12.1l31.5-19.3 31.5-19.3 3 1.8c1.7.9 15.9 9.3 31.8 18.6zM68.2 188C31.7 208.8 1.4 226.2.9 226.7c-1.1 1.1.2 377.8 1.3 378.9.4.4 15.6-8 33.8-18.6l33-19.2.2-75.2.3-75.2 32.4 18.8c24.8 14.2 32.9 18.4 34.2 17.8 2.2-1.2 129.4-75.1 129.5-75.3.1-.1.5-34.4.9-76.2l.7-76-65.5-38.3c-36.1-21-65.9-38.2-66.4-38.1-.4 0-30.7 17.1-67.1 37.9zm76.6 47.2c5.9 3.5 20.3 12 32.2 18.9l21.5 12.7v74.5L166.7 360l-31.8 18.8-12.2-7.2c-44-26.1-51.9-30.9-52.3-31.9-.2-.7-.1-17.8.4-38.1l.7-37 30.5-17.7c16.8-9.8 30.9-17.8 31.4-17.8.5-.1 5.6 2.7 11.4 6.1z"/></svg>