<svg width="325" height="325" xmlns="http://www.w3.org/2000/svg" xmlns="http://www.w3.org/2000/svg" xmlns:svg="http://www.w3.org/2000/svg">
    <g>
        <path fill="black" id="svg_1" d="m12.227,318.323l33.783,-19.73l0,-76.215l33.243,19.189l66.487,-38.649l0.27,-76.756l-66.216,-38.649l-68.378,38.919l0.81,191.891l0.001,0z"></path>
        <path id="svg_2" d="m47.15,145.689l31.786,-18.338c0,0.245 32.763,19.316 32.763,19.316l0,37.408l-32.274,19.071l-32.519,-19.315l0.245,-38.142l-0.001,0z" fill="#fff" ></path>
        <path fill="black" id="svg_3" d="m180.482,11.958l33.512,19.457l0.63,76.213l32.656,-19.456l65.95,38.111l0.9,76.752l-65.043,39.18l-67.82,-38.366l-0.785,-191.891z"></path>
        <path id="svg_4" d="m216.383,184.305l31.527,18.081c-0.002,-0.244 32.182,-19.579 32.182,-19.579l-0.31,-37.407l-32.015,-18.81l-31.94,19.576l0.556,38.14l0,-0.001z" fill="#fff" ></path>
    </g>
</svg>
