<svg width="580" height="400" xmlns="http://www.w3.org/2000/svg">
    <path d="M136.227 364.323l33.783-19.73v-76.215l33.243 19.189 66.487-38.649.27-76.756-66.216-38.649-68.378 38.919.81 191.891z" />
    <path fill="#fff" d="M171.15 191.689l31.786-18.338c0 .245 32.763 19.316 32.763 19.316v37.408l-32.274 19.071-32.519-19.315.245-38.142z" />
    <path d="M304.482 57.958l33.512 19.457.63 76.213 32.656-19.456 65.95 38.111.9 76.752-65.043 39.18-67.82-38.366-.785-191.891z" />
    <path fill="#fff" d="M340.383 230.305l31.527 18.081c-.002-.244 32.182-19.579 32.182-19.579l-.31-37.407-32.015-18.81-31.94 19.576.556 38.14z" />
</svg>
