<?xml version="1.0" standalone="no"?>
<!DOCTYPE svg PUBLIC "-//W3C//DTD SVG 20010904//EN"
 "http://www.w3.org/TR/2001/REC-SVG-20010904/DTD/svg10.dtd">
<svg version="1.0" xmlns="http://www.w3.org/2000/svg"
 width="600.000000pt" height="607.000000pt" viewBox="0 0 600.000000 607.000000"
 preserveAspectRatio="xMidYMid meet">
<metadata>
Created by potrace 1.15, written by Peter Selinger 2001-2017
</metadata>
<g transform="translate(0.000000,607.000000) scale(0.100000,-0.100000)"
fill="#000000" stroke="none">
<path d="M3355 4558 c3 -832 8 -1688 11 -1903 l6 -390 670 -379 669 -378 645
388 645 388 -5 511 c-4 280 -9 623 -12 762 l-6 251 -646 373 c-354 205 -650
372 -657 372 -6 0 -152 -84 -325 -186 -172 -103 -315 -185 -318 -182 -3 2 -8
341 -11 752 l-6 748 -305 178 c-168 98 -317 184 -332 193 l-28 14 5 -1512z
m1678 -963 l287 -168 2 -349 c1 -191 2 -358 2 -370 1 -19 -48 -53 -314 -215
-173 -105 -320 -191 -326 -190 -6 1 -149 81 -317 177 l-306 175 -3 258 c-1
141 -3 312 -3 379 l0 121 315 193 315 193 30 -18 c17 -9 159 -93 318 -186z"/>
<path d="M682 4190 c-365 -208 -668 -382 -673 -387 -11 -11 2 -3778 13 -3789
4 -4 156 80 338 186 l330 192 2 752 3 752 324 -188 c248 -142 329 -184 342
-178 22 12 1294 751 1295 753 1 1 5 344 9 762 l7 760 -655 383 c-361 210 -659
382 -664 381 -4 0 -307 -171 -671 -379z m766 -472 c59 -35 203 -120 322 -189
l215 -127 0 -372 0 -373 -318 -187 -318 -188 -122 72 c-440 261 -519 309 -523
319 -2 7 -1 178 4 381 l7 370 305 177 c168 98 309 178 314 178 5 1 56 -27 114
-61z"/>
</g>
</svg>
