<svg version="1" xmlns="http://www.w3.org/2000/svg" width="1078.667" height="1078.667" viewBox="0 0 809.000000 809.000000"><path d="M450.9 2.3c0 2.3.1 87.8.4 223.4.1 43.6.5 79.3.9 79.3s.3 1.3-.2 3c-.5 1.6-.5 3.2 0 3.5.5.3.5 1.8.1 3.3-.4 1.5-.4 3.9 0 5.4.4 1.6.4 2.8 0 2.8s-.5 2.1-.1 4.7c.5 2.7.4 4.9-.1 5.1-.5.2-.7.8-.4 1.3.9 1.3.9 13.4.1 14.7-.4.7-.4 1.2.1 1.2.4 0 .9 27.3 1 60.8.2 65.9.7 95.9 1.4 96.5.3.4 5.8 3.4 15.4 8.6 1.7.9 3.2 1.8 3.5 2.1.3.3 2.5 1.6 5 2.9 2.5 1.3 5.3 3.1 6.3 3.9.9.8 1.7 1.2 1.7.8 0-.4 1.3.2 2.9 1.3 1.6 1.2 3.4 2.1 4 2.1.6 0 1.1.4 1.1 1 0 .5.5 1 1.1 1 .6 0 2.4.9 4 2.1 1.6 1.1 2.9 1.7 2.9 1.3 0-.4.8-.1 1.8.7.9.8 2.6 1.9 3.7 2.5 5 2.7 35.5 20 39.8 22.6 2.6 1.5 5.1 2.8 5.6 2.8s1.1.3 1.3.7c.2.5 2.5 1.9 5.3 3.3 2.7 1.4 5.4 2.9 6 3.3 2 1.6 25.8 14.7 26.7 14.7.4 0 .8.3.8.8 0 .4 1.5 1.4 3.3 2.1 1.7.8 7 3.7 11.7 6.4 23.6 13.7 24 13.9 26.6 12.2 5.3-3.4 17.6-10.5 18.4-10.5.5 0 1-.3 1.2-.8.4-.9 52.6-32.2 53.7-32.2.5 0 1.1-.3 1.3-.8.3-.6 17.2-11.3 24.1-15.1 1.6-.9 3.6-2.1 4.5-2.6.9-.6 6.2-3.7 11.7-7 5.5-3.3 10.2-6.3 10.3-6.7.2-.5 1.2-.8 2.3-.8 1 0 1.9-.4 1.9-.9s1.4-1.4 3-2.1c1.7-.7 3-1.6 3-2.1s.4-.9 1-.9c.5 0 8.2-4.4 17-9.7l16.1-9.6-.6-53.1c-.4-29.2-.9-64.4-1.1-78.1-.3-13.8-.4-25.9-.4-27 .1-1.1.1-2.5.1-3 0-.6-.2-8.7-.5-18-.2-9.4-.5-18.6-.5-20.6-.1-3.3-.5-3.7-7.8-7.9-4.3-2.5-8.7-5-9.8-5.7-1.1-.7-2.7-1.5-3.5-1.9-.8-.4-3.3-1.9-5.5-3.3s-5.8-3.5-8-4.6c-2.2-1.2-12.1-6.9-22-12.6-9.9-5.8-20-11.7-22.5-13.1-2.5-1.4-10.9-6.2-18.6-10.7-7.8-4.4-14.6-8.1-15.3-8.1-.6 0-1.1-.4-1.1-.8 0-.5-1.2-1.5-2.7-2.3-1.6-.8-8.6-4.7-15.6-8.7-18.2-10.4-39.7-22.1-41.1-22.4-.9-.2-13.3 6.3-19.6 10.2-.8.5-5.8 3.4-11 6.4-5.2 3.1-11.5 6.8-14 8.3-2.5 1.5-4.7 2.7-5 2.8-.4.1-3.3 1.7-10.5 6.2-1.1.7-4.9 2.9-8.5 4.9-3.6 2-8.7 5-11.3 6.7-2.6 1.6-5.1 2.7-5.4 2.3-1-1-1.9-52.1-2.7-163.6-.1-19-.6-35.1-1-35.8-.4-.6-2.4-1.9-4.4-2.9-2-.9-3.9-2-4.2-2.3-.3-.3-3.6-2.3-7.5-4.4-3.8-2.2-7.7-4.4-8.5-5.1-.8-.7-4-2.6-7.1-4.3-5.5-2.9-7.9-4.3-13.6-7.9-1.6-1-3-1.8-3.3-1.8-.3 0-5.6-3.1-11.8-6.8C472 12 466.5 9 466 9c-.4 0-1-.4-1.2-.8-.1-.4-3.3-2.5-7-4.5-6.6-3.6-6.8-3.6-6.9-1.4zm189.2 307.2c6.1 3.6 11.3 6.5 11.5 6.5.1 0 3.9 2.3 8.4 5.1s8.9 5.3 9.8 5.6c1 .3 2.6 1.4 3.7 2.4s2.2 1.7 2.5 1.7c.3-.1 4.6 2.2 9.5 5.2 5 2.9 10.4 6.1 12 7 10.3 5.9 15.5 9.2 15.6 9.8.1.4.2 22.1.4 48.2.3 47.3.3 47.5-1.8 49.8-1.2 1.3-3.7 3.3-5.7 4.5-1.9 1.1-3.7 2.3-4 2.7-1 1.1-9 6-9.9 6-.5 0-1.4.7-2.1 1.6-.8.8-2.7 2.2-4.4 3-1.7.8-5 2.6-7.3 4.2-6.1 3.9-23.8 14.5-37.7 22.5l-12 6.9-3.5-2c-2-1.1-6.3-3.4-9.6-5.2-10.6-5.8-13-7.2-14-8-.5-.4-3.5-2.1-6.5-3.7-4.9-2.7-20.5-11.5-29.5-16.8-1.9-1.1-5.7-3.2-8.4-4.7s-6.5-3.7-8.3-4.8l-3.3-2-.2-17.2c-.7-52.3-.7-82.4 0-83.5.6-.9 33.4-21.4 49.6-30.9 2-1.2 10.1-6.3 18.1-11.2 8-5 14.8-9.1 15.2-9.1.4-.1 5.7 2.8 11.9 6.4zM181.9 201.6c-.6.8-1.5 1.4-2 1.4-.8 0-15.6 8.1-30.4 16.6-2.2 1.3-5.1 2.9-6.5 3.6-1.4.7-2.7 1.5-3 1.8-.3.3-2.1 1.4-4 2.3-1.9 1-5.1 2.7-7 3.8-1.9 1.2-9.1 5.3-16 9.2-6.9 3.9-25.8 14.7-42 24-16.2 9.4-31.1 17.9-33 19-1.9 1.1-4.8 2.8-6.5 3.8-1.6 1-4.8 2.7-7 3.9-2.2 1.2-7.5 4.3-11.7 6.8L5 302.4l-.1 12.5c-.3 27.2.2 249.9.6 341.6.5 107 1 149.4 1.7 150.1.3.2 2.7-.8 5.4-2.2 2.7-1.4 7.6-4 10.9-5.7 3.3-1.7 6.2-3.4 6.5-3.7.5-.5 1.4-1 8.9-5.2 2-1.1 6.6-3.8 10.3-5.9 3.6-2.2 6.9-3.9 7.3-3.9.3 0 1.1-.5 1.8-1.1.7-.5 9.4-5.8 19.5-11.6 10-5.8 18.2-11.1 18.3-11.9.3-5 .2-8.5-.3-9-.4-.3-.3-1.8.1-3.2.4-1.5.4-3.9 0-5.4-.4-1.6-.4-2.8-.1-2.8.8 0 .6-8.5-.2-10.5-.2-.7-.2-1.6.1-1.9.3-.3.6-37.4.7-82.5.1-45.1.5-82.3.9-82.7.3-.4 2.8.8 5.5 2.5s5.4 3.1 6 3.1c.5 0 1.2.4 1.4.8.2.4 3 2.3 6.3 4.1 3.3 1.9 7.4 4.2 9 5.1 20.7 11.9 27.9 16 28.1 16 .1 0 4 2.2 8.6 4.8 4.6 2.6 11.4 6.3 15.1 8.2l6.8 3.4 4.2-2.2c4.6-2.4 9-4.9 18.5-10.5 3.5-2 6.7-3.7 7.2-3.7.4 0 1-.4 1.2-.8.2-.5 5-3.5 10.8-6.7 5.8-3.2 10.7-6.2 10.8-6.7.2-.4.7-.6 1.2-.3.4.3 1.3-.2 2-1s1.9-1.5 2.6-1.5c.8 0 1.4-.3 1.4-.8 0-.4 1.9-1.6 4.3-2.7 2.3-1.1 4.4-2.2 4.7-2.5.3-.4 4.3-2.7 9-5.3 4.7-2.7 9.2-5.2 10-5.7.8-.5 9.4-5.5 19-11.2 9.6-5.7 18.9-11.1 20.5-12.1 1.7-1 4.2-2.3 5.8-3 1.5-.6 2.7-1.5 2.7-1.9 0-.4.5-.8 1-.8.6 0 3.6-1.6 6.6-3.5 3-1.9 5.8-3.5 6.3-3.5s1.4-.7 2.1-1.5c.7-.8 2.1-1.5 3-1.5 1 0 2-.4 2.2-.8.2-.4 4-2.9 8.6-5.6 6.9-4 8.2-5.2 8.3-7.4.3-13.7 1.1-89 1.2-120.9.1-22.2.5-40.3.9-40.3s.4-1-.1-2.2c-.4-1.3-.5-3.5-.1-4.9.4-1.5.4-3.2 0-4-.5-.7-.6-1.7-.3-2.2.3-.5.6-5.3.5-10.6 0-16.5.1-15.6-3.4-17.4-1.8-.9-4.6-2.5-6.3-3.5-1.6-.9-6.4-3.7-10.5-6.1-4.1-2.4-17.3-10.2-29.3-17.3-12-7-22.3-12.8-22.8-12.8s-.9-.5-.9-1c0-.6-.4-1-.9-1s-4.4-2-8.5-4.5c-4.2-2.5-8.1-4.5-8.6-4.5-.6 0-1-.4-1-.9s-1.7-1.6-3.7-2.5c-2.1-.9-5.8-3-8.3-4.5-2.5-1.6-5.1-3-5.7-3-.7-.1-1.3-.6-1.3-1.1 0-.6-.4-1-.9-1s-8.4-4.4-17.7-9.8c-9.3-5.4-17.6-10.1-18.4-10.5-.8-.4-2.4-1.3-3.5-2s-5.6-3.2-10-5.6c-4.4-2.4-8.7-4.9-9.5-5.6-2.5-2-5.8-2.4-7.1-.9zm18.2 113.7c7.4 4.3 14.1 8.2 14.9 8.7.8.5 6 3.6 11.5 6.8 15.5 9 20.9 12.2 22.5 13.2 5.5 3.4 15.1 9 15.6 9 .3 0 1.3.8 2.2 1.7 1.5 1.5 1.7 6.2 1.8 50.9l.1 49.2-5.6 3.3c-3 1.9-5.9 3.3-6.3 3.2-.4-.2-.8.1-.8.6s-1.5 1.6-3.2 2.5c-1.8.9-5.1 2.7-7.3 4.1-2.2 1.3-5.3 3.2-7 4.1-1.6.9-9.7 5.7-17.8 10.5-8.2 4.9-15.3 8.9-15.8 8.9s-.9.4-.9 1c0 .5-.4 1-1 1-.5 0-5 2.5-10 5.4l-9.1 5.5-6.2-3.6c-3.4-1.9-7.8-4.5-9.7-5.8-7-4.4-9-5.5-9.3-5.3-.2.2-1.2-.4-2.2-1.2-.9-.8-2.5-1.9-3.6-2.5-1-.5-4.6-2.7-7.9-4.8-3.4-2-6.6-3.7-7.1-3.7s-.9-.5-.9-1c0-.6-.5-1-1-1-.6 0-3.6-1.6-6.6-3.5-3-1.9-5.6-3.5-5.8-3.5-.3 0-4-2.3-8.3-5-4.3-2.8-8.7-5.4-9.8-5.9-1.1-.5-3.3-2-4.9-3.4l-2.9-2.3.2-14c0-7.6.3-24.3.5-36.9.3-12.7.6-28.9.7-36.1l.2-13 5.6-3c3.1-1.6 5.9-3.3 6.3-3.8.3-.5 1.4-1.1 2.3-1.2.9-.1 2.4-.9 3.3-1.7 1-.8 4-2.7 6.7-4.2 2.8-1.4 6.6-3.6 8.5-4.7 1.9-1.1 5.5-3.2 8-4.6 2.5-1.4 5.7-3.3 7.2-4.3 1.4-1.1 2.8-1.9 3.1-1.9.3 0 4.1-2.1 8.4-4.6 4.3-2.6 10.7-6.2 14.3-8.2 3.6-1.9 6.9-3.8 7.4-4.2 1.1-1.1 4.2.3 19.7 9.3z"/></svg>