<?xml version="1.0" standalone="no"?>
<!DOCTYPE svg PUBLIC "-//W3C//DTD SVG 20010904//EN"
 "http://www.w3.org/TR/2001/REC-SVG-20010904/DTD/svg10.dtd">
<svg version="1.0" xmlns="http://www.w3.org/2000/svg"
 width="809.000000pt" height="809.000000pt" viewBox="0 0 809.000000 809.000000"
 preserveAspectRatio="xMidYMid meet">
<metadata>
Created by potrace 1.11, written by Peter Selinger 2001-2013
</metadata>
<g transform="translate(0.000000,809.000000) scale(0.100000,-0.100000)"
fill="#000000" stroke="none">
<path d="M4509 8067 c0 -23 1 -878 4 -2234 1 -436 5 -793 9 -793 4 0 3 -13 -2
-30 -5 -16 -5 -32 0 -35 5 -3 5 -18 1 -33 -4 -15 -4 -39 0 -54 4 -16 4 -28 0
-28 -4 0 -5 -21 -1 -47 5 -27 4 -49 -1 -51 -5 -2 -7 -8 -4 -13 9 -13 9 -134 1
-147 -4 -7 -4 -12 1 -12 4 0 9 -273 10 -608 2 -659 7 -959 14 -965 3 -4 58
-34 154 -86 17 -9 32 -18 35 -21 3 -3 25 -16 50 -29 25 -13 53 -31 63 -39 9
-8 17 -12 17 -8 0 4 13 -2 29 -13 16 -12 34 -21 40 -21 6 0 11 -4 11 -10 0 -5
5 -10 11 -10 6 0 24 -9 40 -21 16 -11 29 -17 29 -13 0 4 8 1 18 -7 9 -8 26
-19 37 -25 50 -27 355 -200 398 -226 26 -15 51 -28 56 -28 5 0 11 -3 13 -7 2
-5 25 -19 53 -33 27 -14 54 -29 60 -33 20 -16 258 -147 267 -147 4 0 8 -3 8
-8 0 -4 15 -14 33 -21 17 -8 70 -37 117 -64 236 -137 240 -139 266 -122 53 34
176 105 184 105 5 0 10 3 12 8 4 9 526 322 537 322 5 0 11 3 13 8 3 6 172 113
241 151 16 9 36 21 45 26 9 6 62 37 117 70 55 33 102 63 103 67 2 5 12 8 23 8
10 0 19 4 19 9 0 5 14 14 30 21 17 7 30 16 30 21 0 5 4 9 10 9 5 0 82 44 170
97 l161 96 -6 531 c-4 292 -9 644 -11 781 -3 138 -4 259 -4 270 1 11 1 25 1
30 0 6 -2 87 -5 180 -2 94 -5 186 -5 206 -1 33 -5 37 -78 79 -43 25 -87 50
-98 57 -11 7 -27 15 -35 19 -8 4 -33 19 -55 33 -22 14 -58 35 -80 46 -22 12
-121 69 -220 126 -99 58 -200 117 -225 131 -25 14 -109 62 -186 107 -78 44
-146 81 -153 81 -6 0 -11 4 -11 8 0 5 -12 15 -27 23 -16 8 -86 47 -156 87
-182 104 -397 221 -411 224 -9 2 -133 -63 -196 -102 -8 -5 -58 -34 -110 -64
-52 -31 -115 -68 -140 -83 -25 -15 -47 -27 -50 -28 -4 -1 -33 -17 -105 -62
-11 -7 -49 -29 -85 -49 -36 -20 -87 -50 -113 -67 -26 -16 -51 -27 -54 -23 -10
10 -19 521 -27 1636 -1 190 -6 351 -10 358 -4 6 -24 19 -44 29 -20 9 -39 20
-42 23 -3 3 -36 23 -75 44 -38 22 -77 44 -85 51 -8 7 -40 26 -71 43 -55 29
-79 43 -136 79 -16 10 -30 18 -33 18 -3 0 -56 31 -118 68 -62 37 -117 67 -122
67 -4 0 -10 4 -12 8 -1 4 -33 25 -70 45 -66 36 -68 36 -69 14z m1892 -3072
c61 -36 113 -65 115 -65 1 0 39 -23 84 -51 45 -28 89 -53 98 -56 10 -3 26 -14
37 -24 11 -10 22 -17 25 -17 3 1 46 -22 95 -52 50 -29 104 -61 120 -70 103
-59 155 -92 156 -98 1 -4 2 -221 4 -482 3 -473 3 -475 -18 -498 -12 -13 -37
-33 -57 -45 -19 -11 -37 -23 -40 -27 -10 -11 -90 -60 -99 -60 -5 0 -14 -7 -21
-16 -8 -8 -27 -22 -44 -30 -17 -8 -50 -26 -73 -42 -61 -39 -238 -145 -377
-225 l-120 -69 -35 20 c-20 11 -63 34 -96 52 -106 58 -130 72 -140 80 -5 4
-35 21 -65 37 -49 27 -205 115 -295 168 -19 11 -57 32 -84 47 -27 15 -65 37
-83 48 l-33 20 -2 172 c-7 523 -7 824 0 835 6 9 334 214 496 309 20 12 101 63
181 112 80 50 148 91 152 91 4 1 57 -28 119 -64z"/>
<path d="M1819 6074 c-6 -8 -15 -14 -20 -14 -8 0 -156 -81 -304 -166 -22 -13
-51 -29 -65 -36 -14 -7 -27 -15 -30 -18 -3 -3 -21 -14 -40 -23 -19 -10 -51
-27 -70 -38 -19 -12 -91 -53 -160 -92 -69 -39 -258 -147 -420 -240 -162 -94
-311 -179 -330 -190 -19 -11 -48 -28 -65 -38 -16 -10 -48 -27 -70 -39 -22 -12
-75 -43 -117 -68 l-78 -46 -1 -125 c-3 -272 2 -2499 6 -3416 5 -1070 10 -1494
17 -1501 3 -2 27 8 54 22 27 14 76 40 109 57 33 17 62 34 65 37 5 5 14 10 89
52 20 11 66 38 103 59 36 22 69 39 73 39 3 0 11 5 18 11 7 5 94 58 195 116
100 58 182 111 183 119 3 50 2 85 -3 90 -4 3 -3 18 1 32 4 15 4 39 0 54 -4 16
-4 28 -1 28 8 0 6 85 -2 105 -2 7 -2 16 1 19 3 3 6 374 7 825 1 451 5 823 9
827 3 4 28 -8 55 -25 27 -17 54 -31 60 -31 5 0 12 -4 14 -8 2 -4 30 -23 63
-41 33 -19 74 -42 90 -51 207 -119 279 -160 281 -160 1 0 40 -22 86 -48 46
-26 114 -63 151 -82 l68 -34 42 22 c46 24 90 49 185 105 35 20 67 37 72 37 4
0 10 4 12 8 2 5 50 35 108 67 58 32 107 62 108 67 2 4 7 6 12 3 4 -3 13 2 20
10 7 8 19 15 26 15 8 0 14 3 14 8 0 4 19 16 43 27 23 11 44 22 47 25 3 4 43
27 90 53 47 27 92 52 100 57 8 5 94 55 190 112 96 57 189 111 205 121 17 10
42 23 58 30 15 6 27 15 27 19 0 4 5 8 10 8 6 0 36 16 66 35 30 19 58 35 63 35
5 0 14 7 21 15 7 8 21 15 30 15 10 0 20 4 22 8 2 4 40 29 86 56 69 40 82 52
83 74 3 137 11 890 12 1209 1 222 5 403 9 403 4 0 4 10 -1 22 -4 13 -5 35 -1
49 4 15 4 32 0 40 -5 7 -6 17 -3 22 3 5 6 53 5 106 0 165 1 156 -34 174 -18 9
-46 25 -63 35 -16 9 -64 37 -105 61 -41 24 -173 102 -293 173 -120 70 -223
128 -228 128 -5 0 -9 5 -9 10 0 6 -4 10 -9 10 -5 0 -44 20 -85 45 -42 25 -81
45 -86 45 -6 0 -10 4 -10 9 0 5 -17 16 -37 25 -21 9 -58 30 -83 45 -25 16 -51
30 -57 30 -7 1 -13 6 -13 11 0 6 -4 10 -9 10 -5 0 -84 44 -177 98 -93 54 -176
101 -184 105 -8 4 -24 13 -35 20 -11 7 -56 32 -100 56 -44 24 -87 49 -95 56
-25 20 -58 24 -71 9z m182 -1137 c74 -43 141 -82 149 -87 8 -5 60 -36 115 -68
155 -90 209 -122 225 -132 55 -34 151 -90 156 -90 3 0 13 -8 22 -17 15 -15 17
-62 18 -509 l1 -492 -56 -33 c-30 -19 -59 -33 -63 -32 -4 2 -8 -1 -8 -6 0 -5
-15 -16 -32 -25 -18 -9 -51 -27 -73 -41 -22 -13 -53 -32 -70 -41 -16 -9 -97
-57 -178 -105 -82 -49 -153 -89 -158 -89 -5 0 -9 -4 -9 -10 0 -5 -4 -10 -10
-10 -5 0 -50 -25 -100 -54 l-91 -55 -62 36 c-34 19 -78 45 -97 58 -70 44 -90
55 -93 53 -2 -2 -12 4 -22 12 -9 8 -25 19 -36 25 -10 5 -46 27 -79 48 -34 20
-66 37 -71 37 -5 0 -9 5 -9 10 0 6 -5 10 -10 10 -6 0 -36 16 -66 35 -30 19
-56 35 -58 35 -3 0 -40 23 -83 50 -43 28 -87 54 -98 59 -11 5 -33 20 -49 34
l-29 23 2 140 c0 76 3 243 5 369 3 127 6 289 7 361 l2 130 56 30 c31 16 59 33
63 38 3 5 14 11 23 12 9 1 24 9 33 17 10 8 40 27 67 42 28 14 66 36 85 47 19
11 55 32 80 46 25 14 57 33 72 43 14 11 28 19 31 19 3 0 41 21 84 46 43 26
107 62 143 82 36 19 69 38 74 42 11 11 42 -3 197 -93z"/>
</g>
</svg>
